<svg xmlns="http://w3.org" viewBox="0 0 100 100" width="100" height="100">
<path d="M40 90 C 45 70, 35 40, 25 25" fill="none" stroke="#81C784" stroke-width="3" stroke-linecap="round"/>
<path d="M50 90 C 50 65, 55 45, 65 20" fill="none" stroke="#4CAF50" stroke-width="3" stroke-linecap="round"/>
<path d="M60 90 C 55 70, 68 50, 80 35" fill="none" stroke="#81C784" stroke-width="3" stroke-linecap="round"/>
<rect x="42" y="70" width="16" height="6" rx="3" fill="#E57373"/>
<path d="M25 25 C 20 20, 22 10, 30 15 C 35 20, 30 25, 25 25 Z" fill="#FFD54F"/>
<path d="M28 35 C 22 32, 20 22, 28 25 C 34 27, 34 33, 28 35 Z" fill="#FFCA28"/>
<path d="M32 45 C 26 44, 23 35, 31 36 C 37 37, 36 43, 32 45 Z" fill="#FFD54F"/>

<path d="M65 20 C 68 12, 78 12, 75 22 C 72 30, 68 25, 65 20 Z" fill="#FFD54F"/>
<path d="M61 30 C 66 22, 75 25, 71 33 C 68 40, 62 36, 61 30 Z" fill="#FFCA28"/>
<path d="M57 42 C 63 35, 70 40, 66 47 C 62 53, 58 48, 57 42 Z" fill="#FFD54F"/>

<path d="M80 35 C 86 32, 90 40, 82 43 C 76 45, 76 38, 80 35 Z" fill="#FFCA28"/>
<path d="M74 46 C 81 44, 83 52, 76 54 C 70 55, 70 49, 74 46 Z" fill="#FFD54F"/>

<path d="M38 72 C 25 60, 15 65, 12 50 C 20 55, 30 58, 41 71 Z" fill="#4CAF50"/>
<path d="M58 73 C 70 62, 82 68, 88 55 C 82 62, 70 63, 56 71 Z" fill="#81C784"/>
</svg>